<?xml version="1.0" ?><svg id="Layer_1" style="enable-background:new 0 0 512 512;" version="1.1" viewBox="0 0 512 512" xml:space="preserve" xmlns="http://www.w3.org/2000/svg" xmlns:xlink="http://www.w3.org/1999/xlink"><style type="text/css">
	.st0{fill:#479484;}
	.st1{opacity:0.1;}
	.st2{fill:#5DB8A6;}
	.st3{fill:#FFFFFF;}
</style><g><g id="XMLID_3440_"><path class="st0" d="M463.2,512H48.8C21.8,512,0,490.2,0,463.2V48.8C0,21.8,21.8,0,48.8,0h414.5    C490.2,0,512,21.8,512,48.8v414.5C512,490.2,490.2,512,463.2,512z" id="XMLID_3443_"/><path class="st1" d="M472,40H40v432l40,40h383.2c26.9,0,48.8-21.8,48.8-48.8V80L472,40z" id="XMLID_3442_"/><rect class="st2" height="432" id="XMLID_3441_" width="432" x="39.5" y="40"/></g><g><polygon class="st3" id="XMLID_5_" points="231.9,412.2 280.1,412.2 280.1,211.7 256,180 231.9,211.7   "/><polygon class="st3" id="XMLID_4_" points="104.9,412.2 153,412.2 153,131.5 129,99.8 104.9,131.5   "/><polygon class="st3" id="XMLID_3_" points="359,412.2 407.1,412.2 407.1,330.8 383,299.1 359,330.8   "/><polygon class="st3" id="XMLID_2_" points="295.4,412.2 343.6,412.2 343.6,255.3 319.5,223.7 295.4,255.3   "/><polygon class="st3" id="XMLID_1_" points="168.4,412.2 216.6,412.2 216.6,150.8 192.5,119.1 168.4,150.8   "/></g></g></svg>